<?xml version="1.0" encoding="UTF-8" standalone="no"?><!DOCTYPE svg PUBLIC "-//W3C//DTD SVG 1.1//EN" "http://www.w3.org/Graphics/SVG/1.1/DTD/svg11.dtd"><svg width="100%" height="100%" viewBox="0 0 4297 5848" version="1.1" xmlns="http://www.w3.org/2000/svg" xmlns:xlink="http://www.w3.org/1999/xlink" xml:space="preserve" xmlns:serif="http://www.serif.com/" style="fill-rule:evenodd;clip-rule:evenodd;stroke-linejoin:round;stroke-miterlimit:2;"><g id="shark" opacity="0.3"><path d="M1267.27,3143.23c679.664,-342.545 1018.86,-779.723 1045.45,-1303.79l-1450.91,-323.184c495.445,414.403 783.34,902.497 405.463,1626.97Z" style="fill:#0f2a63;"/><path d="M2114.87,766.566c1230.94,-73.454 387.172,1292.51 84.873,1246.76c-647.258,-97.962 -1536.8,-233.757 -1601.86,501.943c-89.752,1014.83 1264.07,1618.91 1150.34,1795.28c-48.223,74.778 -1596.07,-640.728 -1725.89,-1480.11c-148.498,-960.125 432.264,-1964.79 2092.55,-2063.87Z" style="fill:#3172e4;"/><path d="M2162,1054.82c1144.02,-237.651 136.409,1182.24 -308.646,1133.98c-531.309,-57.616 -1079.87,-46.876 -1130.14,472.708c-90.168,931.964 1198.91,1487.44 1091.03,1649.48c-45.738,68.705 -1543.17,-584.749 -1636.92,-1359.91c-99.702,-824.37 531.788,-1594.45 1984.67,-1896.26Z" style="fill:#0015ca;"/><path d="M2829.49,1942.64c146.002,98.877 141.032,320.934 127.48,458.396l-388.471,0c106.563,-78.958 244.024,-294.659 260.991,-458.396Z" style="fill:#fff;"/><path d="M3026.9,2054.48c146.002,98.876 141.031,320.933 127.48,458.396l-388.471,-0c106.562,-78.959 244.024,-294.66 260.991,-458.396Z" style="fill:#fff;"/><path d="M3224.3,2106.81c146.003,98.877 141.032,320.934 127.481,458.396l-388.472,0c106.563,-78.958 244.025,-294.659 260.991,-458.396Z" style="fill:#fff;"/><path d="M3438.48,2193.13c80.591,89.322 79.767,217.194 56.622,330.818c-10.858,53.307 -288.854,-24.955 -223.431,-89.676c72.805,-72.024 137.741,-159.552 166.809,-241.142Z" style="fill:#fff;"/><path d="M3600.66,2255.51c59.316,65.742 74.528,152.367 69.198,238.824c-5.309,86.12 -279.058,50.346 -206.393,-28.325c60.428,-65.422 112.138,-140.167 137.195,-210.499Z" style="fill:#fff;"/><path d="M3732.96,2353.25c53.054,58.802 70.824,134.31 70.171,211.462c-0.163,19.253 -225.151,18.239 -208.258,0c60.81,-65.651 112.906,-140.784 138.087,-211.462Z" style="fill:#fff;"/><path d="M2746.75,2106.81c-149.723,-93.028 -153.364,-315.111 -145.151,-453.004l388.173,-15.36c-103.42,83.111 -232.415,304.082 -243.022,468.364Z" style="fill:#fff;"/><path d="M2977.15,2017.52c-149.723,-93.027 -153.364,-315.111 -145.152,-453.004l388.174,-15.36c-103.421,83.112 -232.415,304.082 -243.022,468.364Z" style="fill:#fff;"/><path d="M3172.49,2106.81c-149.723,-93.028 -153.364,-315.111 -145.151,-453.004l388.173,-15.36c-103.42,83.111 -232.415,304.082 -243.022,468.364Z" style="fill:#fff;"/><path d="M3379.74,2158.6c-159.081,-75.539 -187.282,-295.819 -194.384,-433.775l384.04,-59.092c-93.573,94.267 -197.3,328.418 -189.656,492.867Z" style="fill:#fff;"/><path d="M3571.76,2255.51c-159.081,-75.54 -187.282,-295.82 -194.384,-433.776l384.04,-59.092c-93.573,94.268 -197.3,328.418 -189.656,492.868Z" style="fill:#fff;"/><path d="M3763.78,2342.51c-159.081,-75.539 -187.282,-295.819 -194.384,-433.775l384.04,-59.092c-93.573,94.267 -197.3,328.418 -189.656,492.867Z" style="fill:#fff;"/><path d="M4296.29,2505.86c-590.159,-274.378 -1377.53,-899.292 -1606.88,-751.233c-148.99,96.18 -98.525,305.724 -80.852,396.717c77.285,397.928 533.074,-12.581 1546.53,483.825c-1289.12,11.405 -1568.98,-97.602 -2024.25,-314.818c-266.237,-127.025 -596.116,-690.608 -768.141,-1010.93c0,0 672.818,-643.538 874.838,-598.819c1353.71,299.656 1954.38,943.57 2058.76,1795.25Z" style="fill:#3172e4;"/><path d="M487.851,-0c914.603,33.13 1418.46,140.018 1749.69,710.505c-144.971,342.122 -719.558,615.385 -1408.08,729.455c282.488,-716.064 475.858,-826.308 -341.603,-1439.96Z" style="fill:#3172e4;"/><path d="M1332.64,4159.98c-25.42,-66.661 51.88,-223.947 113.616,-234.544c852.123,-146.27 1711.3,-165.846 2574.93,-105.674c-1608.79,145.061 -2280.79,770.637 -1722.34,2027.36c-406.993,-548.907 -745.615,-1108.66 -966.204,-1687.14Z" style="fill:#393b94;"/><path d="M2624.8,1342.93l-109.262,-254.774l379.586,204.3l-270.324,50.474Z" style="fill:#fff;"/></g></svg>