<?xml version="1.0" encoding="UTF-8" standalone="no"?>
<!DOCTYPE svg PUBLIC "-//W3C//DTD SVG 1.1//EN" "http://www.w3.org/Graphics/SVG/1.1/DTD/svg11.dtd">
<svg width="100%" height="100%" viewBox="0 0 168 42" version="1.1" xmlns="http://www.w3.org/2000/svg" xmlns:xlink="http://www.w3.org/1999/xlink" xml:space="preserve" xmlns:serif="http://www.serif.com/" style="fill-rule:evenodd;clip-rule:evenodd;stroke-linejoin:round;stroke-miterlimit:2;">
    <g transform="matrix(1,0,0,1,-1,-24.1099)">
        <g id="jcu">
            <g transform="matrix(0.865244,0,0,0.865244,22.5785,24.1099)">
                <path d="M0,17.49C4.83,17.49 8.745,13.575 8.745,8.746C8.745,3.916 4.83,0 0,0C-4.83,0 -8.745,3.916 -8.745,8.746C-8.745,13.575 -4.83,17.49 0,17.49" style="fill:white;fill-rule:nonzero;"/>
            </g>
            <g transform="matrix(0.267329,-0.822911,-0.822911,-0.267329,13.0166,35.7328)">
                <path d="M-8.318,-6.043C-3.487,-6.043 0.427,-2.128 0.428,2.702C0.428,7.532 -3.487,11.448 -8.318,11.448C-13.147,11.448 -17.061,7.533 -17.063,2.703C-17.062,-2.127 -13.148,-6.042 -8.318,-6.043" style="fill:white;fill-rule:nonzero;"/>
            </g>
            <g transform="matrix(-0.699987,-0.508592,-0.508592,0.699987,6.72335,60.6592)">
                <path d="M-5.142,-15.819C-0.312,-15.82 3.604,-11.903 3.604,-7.071C3.604,-2.243 -0.312,1.672 -5.142,1.672C-9.972,1.671 -13.888,-2.244 -13.889,-7.073C-13.887,-11.902 -9.971,-15.817 -5.142,-15.819" style="fill:white;fill-rule:nonzero;"/>
            </g>
            <g transform="matrix(0.267329,0.822911,0.822911,-0.267329,32.1395,35.7328)">
                <path d="M8.318,-6.043C13.148,-6.042 17.062,-2.127 17.063,2.704C17.061,7.533 13.147,11.448 8.318,11.448C3.487,11.449 -0.428,7.533 -0.428,2.702C-0.427,-2.128 3.487,-6.043 8.318,-6.043" style="fill:white;fill-rule:nonzero;"/>
            </g>
            <g transform="matrix(-0.700011,0.508559,0.508559,0.700011,38.4327,60.6598)">
                <path d="M5.141,-15.818C9.972,-15.817 13.888,-11.902 13.888,-7.072C13.887,-2.244 9.97,1.671 5.141,1.672C0.311,1.672 -3.605,-2.243 -3.604,-7.072C-3.604,-11.903 0.312,-15.82 5.141,-15.818" style="fill:white;fill-rule:nonzero;"/>
            </g>
            <g transform="matrix(0.865244,0,0,0.865244,-279.22,-181.573)">
                <path d="M390.519,282.657L391.421,282.657L391.421,278.022L390.519,278.022L390.519,282.657ZM390.499,277.052L391.439,277.052L391.439,276.255L390.499,276.255L390.499,277.052ZM395.439,277.907C394.784,277.907 394.261,278.192 393.862,278.554L393.749,278.022L393.007,278.022L393.064,278.753L393.064,282.657L393.958,282.657L393.958,279.038C394.347,278.782 394.708,278.657 395.097,278.657C395.8,278.657 396.21,279.056 396.21,279.771L396.21,282.657L397.111,282.657L397.111,279.579C397.111,278.429 396.399,277.907 395.439,277.907M404.684,276.046C402.688,276.046 401.567,277.442 401.567,279.437C401.567,281.479 402.906,282.772 404.684,282.772C405.243,282.772 405.87,282.628 406.308,282.411L406.099,281.659C405.661,281.878 405.263,281.964 404.712,281.964C403.505,281.964 402.574,281.032 402.574,279.417C402.574,277.927 403.277,276.843 404.692,276.843C405.243,276.843 405.652,276.929 406.089,277.147L406.288,276.397C405.843,276.179 405.281,276.046 404.684,276.046M403.087,274.667L404.171,275.771L405.14,275.771L406.212,274.667L405.528,274.667L404.654,275.409L403.771,274.667L403.087,274.667ZM409.681,277.907C408.427,277.907 407.438,278.847 407.438,280.329C407.438,281.907 408.55,282.772 409.708,282.772C410.316,282.772 410.943,282.601 411.438,282.286L411.247,281.755C410.858,281.954 410.384,282.087 409.974,282.087C409.101,282.087 408.436,281.526 408.369,280.415L411.675,280.415C411.741,279.151 411.163,277.907 409.681,277.907M409.671,278.563C410.46,278.563 410.829,279.218 410.839,279.874L408.388,279.911C408.492,279.056 409.005,278.563 409.671,278.563M414.771,277.907C413.632,277.907 412.929,278.478 412.929,279.323C412.929,280.948 415.39,280.302 415.39,281.394C415.39,281.868 414.952,282.126 414.392,282.126C413.964,282.126 413.441,282.021 413.052,281.802L412.882,282.411C413.28,282.638 413.945,282.772 414.468,282.772C415.484,282.772 416.263,282.183 416.263,281.28C416.263,279.618 413.813,280.235 413.813,279.228C413.813,278.772 414.201,278.554 414.81,278.554C415.208,278.554 415.636,278.649 415.921,278.8L416.111,278.212C415.74,278.03 415.228,277.907 414.771,277.907M417.783,275.913L417.783,282.657L418.686,282.657L418.686,281.032L419.313,280.405L420.775,282.657L421.812,282.657L419.958,279.778L421.622,278.022L420.624,278.022L418.686,280.093L418.686,275.913L417.783,275.913ZM424.898,277.907C423.645,277.907 422.656,278.847 422.656,280.329C422.656,281.907 423.769,282.772 424.927,282.772C425.535,282.772 426.163,282.601 426.656,282.286L426.466,281.755C426.076,281.954 425.602,282.087 425.193,282.087C424.319,282.087 423.654,281.526 423.587,280.415L426.894,280.415C426.96,279.151 426.38,277.907 424.898,277.907M424.89,278.563C425.677,278.563 426.048,279.218 426.058,279.874L423.606,279.911C423.712,279.056 424.224,278.563 424.89,278.563M425.193,275.913L424.386,277.433L425.003,277.452L426.067,275.913L425.193,275.913ZM431.244,282.657L433.581,282.657C435.025,282.657 435.785,281.849 435.785,280.815C435.785,279.96 435.149,279.37 434.466,279.228C435.083,279.056 435.558,278.497 435.558,277.794C435.558,276.825 434.826,276.14 433.468,276.14L431.244,276.14L431.244,282.657ZM432.186,281.983L432.186,279.579L433.468,279.579C434.352,279.579 434.816,280.103 434.816,280.776C434.816,281.556 434.247,281.983 433.363,281.983L432.186,281.983ZM432.186,278.972L432.186,276.833L433.306,276.833C434.199,276.833 434.646,277.29 434.646,277.927C434.646,278.468 434.208,278.972 433.439,278.972L432.186,278.972ZM440.622,282.733L441.343,282.628L441.173,281.917L441.173,278.022L440.279,278.022L440.279,281.603C439.956,281.841 439.558,282.021 439.148,282.021C438.445,282.021 438.027,281.622 438.027,280.909L438.027,278.022L437.126,278.022L437.126,281.108C437.126,282.249 437.837,282.772 438.806,282.772C439.481,282.772 440.022,282.495 440.44,282.126L440.622,282.733ZM445.134,278.581C445.456,278.581 445.817,278.696 446.074,278.923L446.074,281.651C445.817,281.878 445.399,282.06 445.067,282.06C444.136,282.06 443.661,281.384 443.661,280.329C443.661,279.247 444.251,278.581 445.134,278.581M444.867,277.907C443.575,277.907 442.712,278.981 442.712,280.415C442.712,281.784 443.528,282.772 444.696,282.772C445.304,282.772 445.894,282.495 446.245,282.134L446.417,282.733L447.138,282.628L446.977,281.917L446.977,275.913L446.074,275.913L446.074,278.315C445.751,278.06 445.323,277.907 444.867,277.907M450.785,277.907C449.531,277.907 448.544,278.847 448.544,280.329C448.544,281.907 449.655,282.772 450.814,282.772C451.423,282.772 452.05,282.601 452.544,282.286L452.354,281.755C451.964,281.954 451.488,282.087 451.081,282.087C450.206,282.087 449.542,281.526 449.474,280.415L452.78,280.415C452.847,279.151 452.268,277.907 450.785,277.907M450.776,278.563C451.564,278.563 451.936,279.218 451.944,279.874L449.493,279.911C449.599,279.056 450.111,278.563 450.776,278.563M449.417,275.921L450.386,277.442L451.185,277.442L452.153,275.921L451.526,275.921L450.785,277.042L450.044,275.921L449.417,275.921ZM454.13,278.022L454.13,282.79C454.13,283.171 454.063,283.456 453.874,283.722L453.322,284.481L453.816,284.833L454.472,284.063C454.794,283.665 455.022,283.304 455.022,282.704L455.022,278.022L454.13,278.022ZM454.102,277.052L455.052,277.052L455.052,276.255L454.102,276.255L454.102,277.052ZM458.813,278.563C459.64,278.563 460.171,279.124 460.171,280.302C460.171,281.423 459.688,282.087 458.813,282.087C458.005,282.087 457.445,281.546 457.445,280.302C457.445,279.228 457.929,278.563 458.813,278.563M458.841,277.907C457.313,277.907 456.533,278.962 456.533,280.435C456.533,281.888 457.483,282.772 458.718,282.772C460.247,282.772 461.064,281.716 461.064,280.245C461.064,278.79 460.076,277.907 458.841,277.907M461.977,278.022L463.563,282.657L464.693,282.657L466.318,278.022L465.425,278.022L464.181,281.812L462.964,278.022L461.977,278.022ZM467.363,282.657L468.264,282.657L468.264,278.022L467.363,278.022L467.363,282.657ZM467.345,277.052L468.285,277.052L468.285,276.255L467.345,276.255L467.345,277.052ZM472.093,277.907C470.706,277.907 469.757,278.866 469.757,280.368C469.757,281.774 470.773,282.772 471.933,282.772C472.55,282.772 473.054,282.601 473.49,282.343L473.339,281.802C473.015,281.974 472.597,282.097 472.236,282.097C471.362,282.097 470.697,281.431 470.697,280.312C470.697,279.171 471.39,278.581 472.236,278.581C472.606,278.581 472.997,278.687 473.3,278.876L473.509,278.269C473.072,278.022 472.616,277.907 472.093,277.907M476.777,277.907C475.523,277.907 474.535,278.847 474.535,280.329C474.535,281.907 475.646,282.772 476.806,282.772C477.413,282.772 478.04,282.601 478.534,282.286L478.345,281.755C477.956,281.954 477.48,282.087 477.071,282.087C476.197,282.087 475.532,281.526 475.466,280.415L478.772,280.415C478.839,279.151 478.259,277.907 476.777,277.907M476.768,278.563C477.556,278.563 477.927,279.218 477.937,279.874L475.485,279.911C475.589,279.056 476.103,278.563 476.768,278.563" style="fill:white;fill-rule:nonzero;"/>
            </g>
            <g transform="matrix(0.865244,0,0,0.865244,58.7886,55.1294)">
                <path d="M0,-8.427L0,-3.886C0,-2.536 1.018,-1.796 2.356,-1.796C3.762,-1.796 4.77,-2.622 4.77,-3.952L4.77,-8.427L3.896,-8.427L3.896,-4.056C3.896,-3.173 3.325,-2.603 2.424,-2.603C1.559,-2.603 0.941,-3.079 0.941,-4.056L0.941,-8.427L0,-8.427ZM8.92,-6.659C8.266,-6.659 7.742,-6.374 7.344,-6.013L7.229,-6.546L6.488,-6.546L6.545,-5.814L6.545,-1.909L7.438,-1.909L7.438,-5.529C7.828,-5.786 8.189,-5.907 8.578,-5.907C9.281,-5.907 9.69,-5.509 9.69,-4.798L9.69,-1.909L10.592,-1.909L10.592,-4.988C10.592,-6.138 9.881,-6.659 8.92,-6.659M12.227,-1.909L13.129,-1.909L13.129,-6.546L12.227,-6.546L12.227,-1.909ZM12.207,-7.515L13.148,-7.515L13.148,-8.312L12.207,-8.312L12.207,-7.515ZM14.174,-6.546L15.76,-1.909L16.891,-1.909L18.516,-6.546L17.622,-6.546L16.379,-2.755L15.162,-6.546L14.174,-6.546ZM21.66,-6.659C20.406,-6.659 19.418,-5.718 19.418,-4.238C19.418,-2.661 20.529,-1.796 21.688,-1.796C22.297,-1.796 22.924,-1.966 23.418,-2.281L23.227,-2.812C22.838,-2.613 22.363,-2.48 21.954,-2.48C21.08,-2.48 20.416,-3.04 20.35,-4.152L23.655,-4.152C23.721,-5.415 23.143,-6.659 21.66,-6.659M21.65,-6.003C22.439,-6.003 22.809,-5.349 22.819,-4.693L20.368,-4.656C20.473,-5.509 20.985,-6.003 21.65,-6.003M27.113,-6.63C26.582,-6.63 26.106,-6.364 25.793,-5.947L25.65,-6.546L24.909,-6.546L25.014,-5.747L25.014,-1.909L25.906,-1.909L25.906,-5.425C26.221,-5.728 26.666,-5.956 27.094,-5.956C27.246,-5.956 27.379,-5.919 27.512,-5.872L27.684,-6.48C27.541,-6.583 27.36,-6.63 27.113,-6.63M30.238,-6.659C29.098,-6.659 28.396,-6.089 28.396,-5.245C28.396,-3.62 30.856,-4.265 30.856,-3.173C30.856,-2.697 30.42,-2.441 29.858,-2.441C29.432,-2.441 28.908,-2.546 28.52,-2.765L28.348,-2.156C28.747,-1.929 29.412,-1.796 29.934,-1.796C30.951,-1.796 31.73,-2.384 31.73,-3.288C31.73,-4.948 29.279,-4.333 29.279,-5.339C29.279,-5.794 29.668,-6.013 30.276,-6.013C30.676,-6.013 31.104,-5.919 31.389,-5.767L31.578,-6.355C31.207,-6.536 30.694,-6.659 30.238,-6.659M33.25,-1.909L34.151,-1.909L34.151,-6.546L33.25,-6.546L33.25,-1.909ZM33.23,-7.515L34.171,-7.515L34.171,-8.312L33.23,-8.312L33.23,-7.515ZM36.451,-8.179L36.147,-6.546L35.282,-6.441L35.282,-5.927L36.147,-5.927L36.147,-3.097C36.147,-2.175 36.821,-1.796 37.524,-1.796C38.01,-1.796 38.437,-1.966 38.797,-2.167L38.627,-2.679C38.389,-2.556 38.123,-2.48 37.857,-2.48C37.41,-2.48 37.041,-2.679 37.041,-3.316L37.041,-5.927L38.607,-5.927L38.607,-6.546L37.041,-6.546L37.041,-8.179L36.451,-8.179ZM39.215,-6.546L40.83,-1.909L41.049,-1.909L40.223,0.227L41.201,0.227L43.596,-6.546L42.702,-6.546L41.43,-2.765L40.194,-6.546L39.215,-6.546ZM49.637,-6.003C50.463,-6.003 50.995,-5.443 50.995,-4.265C50.995,-3.144 50.512,-2.48 49.637,-2.48C48.829,-2.48 48.27,-3.021 48.27,-4.265C48.27,-5.339 48.754,-6.003 49.637,-6.003M49.666,-6.659C48.137,-6.659 47.357,-5.605 47.357,-4.132C47.357,-2.679 48.307,-1.796 49.543,-1.796C51.071,-1.796 51.889,-2.851 51.889,-4.322C51.889,-5.777 50.9,-6.659 49.666,-6.659M55.194,-8.587C54.34,-8.587 53.666,-8.142 53.666,-7.144L53.666,-6.546L52.934,-6.546L52.934,-5.927L53.666,-5.927L53.666,-1.909L54.567,-1.909L54.567,-5.927L55.84,-5.927L55.84,-6.546L54.567,-6.546L54.567,-7.202C54.567,-7.753 54.909,-7.97 55.356,-7.97C55.584,-7.97 55.859,-7.894 56.041,-7.818L56.201,-8.398C55.897,-8.513 55.594,-8.587 55.194,-8.587M61.901,-8.521C60.42,-8.521 59.602,-7.734 59.602,-6.64C59.602,-5.538 60.42,-5.13 61.379,-4.882C62.243,-4.656 62.908,-4.427 62.908,-3.657C62.908,-2.984 62.319,-2.556 61.502,-2.556C60.866,-2.556 60.145,-2.765 59.745,-3.003L59.536,-2.281C60.088,-1.976 60.828,-1.796 61.616,-1.796C62.918,-1.796 63.926,-2.488 63.926,-3.734C63.926,-4.931 62.984,-5.386 61.92,-5.663C61.189,-5.872 60.609,-6.099 60.609,-6.755C60.609,-7.4 61.151,-7.79 61.93,-7.79C62.481,-7.79 63.127,-7.62 63.45,-7.439L63.649,-8.161C63.155,-8.388 62.528,-8.521 61.901,-8.521M67.479,-6.003C68.305,-6.003 68.836,-5.443 68.836,-4.265C68.836,-3.144 68.352,-2.48 67.479,-2.48C66.67,-2.48 66.11,-3.021 66.11,-4.265C66.11,-5.339 66.594,-6.003 67.479,-6.003M67.506,-6.659C65.977,-6.659 65.198,-5.605 65.198,-4.132C65.198,-2.679 66.148,-1.796 67.383,-1.796C68.912,-1.796 69.729,-2.851 69.729,-4.322C69.729,-5.777 68.741,-6.659 67.506,-6.659M74.727,-1.833L75.448,-1.939L75.277,-2.65L75.277,-6.546L74.385,-6.546L74.385,-2.964C74.062,-2.726 73.662,-2.546 73.254,-2.546C72.551,-2.546 72.133,-2.945 72.133,-3.657L72.133,-6.546L71.23,-6.546L71.23,-3.458C71.23,-2.318 71.942,-1.796 72.911,-1.796C73.586,-1.796 74.127,-2.072 74.545,-2.441L74.727,-1.833ZM77.623,-8.179L77.319,-6.546L76.455,-6.441L76.455,-5.927L77.319,-5.927L77.319,-3.097C77.319,-2.175 77.994,-1.796 78.697,-1.796C79.182,-1.796 79.609,-1.966 79.971,-2.167L79.799,-2.679C79.562,-2.556 79.295,-2.48 79.029,-2.48C78.584,-2.48 78.213,-2.679 78.213,-3.316L78.213,-5.927L79.78,-5.927L79.78,-6.546L78.213,-6.546L78.213,-8.179L77.623,-8.179ZM83.361,-6.659C82.764,-6.659 82.278,-6.413 81.889,-6.099L81.889,-8.654L80.986,-8.654L80.986,-1.909L81.889,-1.909L81.889,-5.529C82.27,-5.786 82.639,-5.907 83.02,-5.907C83.723,-5.907 84.141,-5.509 84.141,-4.798L84.141,-1.909L85.033,-1.909L85.033,-4.988C85.033,-6.138 84.33,-6.659 83.361,-6.659M89.688,-1.909L92.025,-1.909C93.469,-1.909 94.229,-2.716 94.229,-3.753C94.229,-4.607 93.594,-5.197 92.909,-5.339C93.526,-5.509 94.002,-6.07 94.002,-6.773C94.002,-7.743 93.271,-8.427 91.911,-8.427L89.688,-8.427L89.688,-1.909ZM90.629,-2.585L90.629,-4.988L91.911,-4.988C92.795,-4.988 93.26,-4.464 93.26,-3.79C93.26,-3.011 92.69,-2.585 91.807,-2.585L90.629,-2.585ZM90.629,-5.595L90.629,-7.734L91.75,-7.734C92.643,-7.734 93.09,-7.277 93.09,-6.64C93.09,-6.099 92.652,-5.595 91.883,-5.595L90.629,-5.595ZM97.707,-6.003C98.533,-6.003 99.065,-5.443 99.065,-4.265C99.065,-3.144 98.58,-2.48 97.707,-2.48C96.899,-2.48 96.338,-3.021 96.338,-4.265C96.338,-5.339 96.823,-6.003 97.707,-6.003M97.735,-6.659C96.205,-6.659 95.426,-5.605 95.426,-4.132C95.426,-2.679 96.377,-1.796 97.611,-1.796C99.141,-1.796 99.959,-2.851 99.959,-4.322C99.959,-5.777 98.971,-6.659 97.735,-6.659M103.834,-6.659C103.235,-6.659 102.752,-6.413 102.361,-6.099L102.361,-8.654L101.459,-8.654L101.459,-1.909L102.361,-1.909L102.361,-5.529C102.741,-5.786 103.112,-5.907 103.492,-5.907C104.195,-5.907 104.613,-5.509 104.613,-4.798L104.613,-1.909L105.506,-1.909L105.506,-4.988C105.506,-6.138 104.803,-6.659 103.834,-6.659M109.25,-6.659C107.995,-6.659 107.008,-5.718 107.008,-4.238C107.008,-2.661 108.118,-1.796 109.277,-1.796C109.885,-1.796 110.512,-1.966 111.006,-2.281L110.816,-2.812C110.426,-2.613 109.952,-2.48 109.543,-2.48C108.67,-2.48 108.004,-3.04 107.938,-4.152L111.244,-4.152C111.311,-5.415 110.731,-6.659 109.25,-6.659M109.239,-6.003C110.028,-6.003 110.398,-5.349 110.408,-4.693L107.957,-4.656C108.062,-5.509 108.574,-6.003 109.239,-6.003M117.846,-6.659C117.219,-6.659 116.668,-6.355 116.26,-5.947C115.984,-6.431 115.48,-6.659 114.883,-6.659C114.264,-6.659 113.762,-6.384 113.381,-6.023L113.276,-6.546L112.535,-6.546L112.592,-5.814L112.592,-1.909L113.485,-1.909L113.485,-5.519L113.477,-5.538C113.846,-5.794 114.18,-5.907 114.541,-5.907C115.195,-5.907 115.586,-5.509 115.586,-4.798L115.586,-1.909L116.479,-1.909L116.479,-4.988C116.479,-5.177 116.459,-5.359 116.422,-5.519C116.801,-5.794 117.162,-5.907 117.514,-5.907C118.17,-5.907 118.549,-5.509 118.549,-4.798L118.549,-1.909L119.451,-1.909L119.451,-4.988C119.451,-6.138 118.768,-6.659 117.846,-6.659M121.086,-1.909L121.987,-1.909L121.987,-6.546L121.086,-6.546L121.086,-1.909ZM121.066,-7.515L122.008,-7.515L122.008,-8.312L121.066,-8.312L121.066,-7.515ZM125.485,-6.659C124.858,-6.659 124.278,-6.536 123.745,-6.271L123.946,-5.671C124.392,-5.919 124.896,-6.013 125.333,-6.013C125.979,-6.013 126.312,-5.681 126.312,-5.197L126.312,-4.751C124.849,-4.751 123.423,-4.513 123.423,-3.173C123.423,-2.251 124.146,-1.796 124.925,-1.796C125.579,-1.796 126.12,-2.072 126.481,-2.413L126.644,-1.833L127.376,-1.939L127.204,-2.65L127.204,-5.32C127.204,-6.165 126.454,-6.659 125.485,-6.659M126.312,-2.878C126.026,-2.603 125.638,-2.433 125.171,-2.433C124.716,-2.433 124.298,-2.697 124.298,-3.239C124.298,-4.075 125.284,-4.228 126.312,-4.228L126.312,-2.878Z" style="fill:white;fill-rule:nonzero;"/>
            </g>
            <g transform="matrix(0.865244,0,0,0.865244,58.1642,42.9406)">
                <path d="M0,-3.458L1.587,1.178L2.717,1.178L4.342,-3.458L3.448,-3.458L2.204,0.332L0.987,-3.458L0,-3.458ZM11.01,-5.434C9.015,-5.434 7.894,-4.037 7.894,-2.043C7.894,-0 9.233,1.292 11.01,1.292C11.571,1.292 12.198,1.149 12.635,0.932L12.426,0.182C11.989,0.399 11.59,0.485 11.039,0.485C9.832,0.485 8.901,-0.445 8.901,-2.062C8.901,-3.553 9.604,-4.636 11.021,-4.636C11.571,-4.636 11.979,-4.55 12.416,-4.332L12.616,-5.082C12.169,-5.301 11.608,-5.434 11.01,-5.434M9.414,-6.812L10.497,-5.709L11.466,-5.709L12.54,-6.812L11.856,-6.812L10.981,-6.07L10.099,-6.812L9.414,-6.812ZM16.007,-3.572C14.753,-3.572 13.765,-2.631 13.765,-1.148C13.765,0.427 14.877,1.292 16.036,1.292C16.644,1.292 17.271,1.121 17.765,0.809L17.575,0.276C17.185,0.476 16.71,0.608 16.302,0.608C15.429,0.608 14.763,0.047 14.696,-1.063L18.002,-1.063C18.069,-2.328 17.489,-3.572 16.007,-3.572M15.998,-2.916C16.786,-2.916 17.157,-2.261 17.166,-1.605L14.715,-1.566C14.819,-2.422 15.333,-2.916 15.998,-2.916M21.099,-3.572C19.959,-3.572 19.256,-3.002 19.256,-2.157C19.256,-0.532 21.717,-1.178 21.717,-0.086C21.717,0.391 21.28,0.646 20.719,0.646C20.292,0.646 19.769,0.541 19.38,0.323L19.209,0.932C19.608,1.159 20.272,1.292 20.795,1.292C21.812,1.292 22.591,0.703 22.591,-0.2C22.591,-1.861 20.14,-1.244 20.14,-2.252C20.14,-2.707 20.528,-2.926 21.138,-2.926C21.536,-2.926 21.964,-2.831 22.249,-2.679L22.438,-3.268C22.067,-3.448 21.556,-3.572 21.099,-3.572M24.11,-5.566L24.11,1.178L25.013,1.178L25.013,-0.445L25.64,-1.073L27.103,1.178L28.138,1.178L26.286,-1.7L27.948,-3.458L26.951,-3.458L25.013,-1.387L25.013,-5.566L24.11,-5.566ZM28.708,-3.458L30.323,1.178L30.542,1.178L29.715,3.315L30.694,3.315L33.088,-3.458L32.194,-3.458L30.922,0.323L29.687,-3.458L28.708,-3.458ZM31.226,-5.566L30.418,-4.047L31.036,-4.027L32.101,-5.566L31.226,-5.566ZM36.224,-3.572C34.836,-3.572 33.886,-2.611 33.886,-1.111C33.886,0.295 34.901,1.292 36.062,1.292C36.679,1.292 37.183,1.121 37.619,0.864L37.467,0.323C37.144,0.494 36.726,0.618 36.364,0.618C35.491,0.618 34.826,-0.047 34.826,-1.168C34.826,-2.308 35.521,-2.896 36.364,-2.896C36.735,-2.896 37.125,-2.793 37.429,-2.603L37.638,-3.211C37.201,-3.458 36.745,-3.572 36.224,-3.572M41.183,-3.572C40.583,-3.572 40.099,-3.325 39.709,-3.011L39.709,-5.566L38.808,-5.566L38.808,1.178L39.709,1.178L39.709,-2.441C40.089,-2.698 40.46,-2.82 40.84,-2.82C41.543,-2.82 41.961,-2.422 41.961,-1.71L41.961,1.178L42.854,1.178L42.854,-1.899C42.854,-3.05 42.151,-3.572 41.183,-3.572M47.509,1.178L49.847,1.178C51.29,1.178 52.05,0.371 52.05,-0.665C52.05,-1.52 51.413,-2.108 50.729,-2.252C51.347,-2.422 51.821,-2.982 51.821,-3.686C51.821,-4.655 51.09,-5.339 49.731,-5.339L47.509,-5.339L47.509,1.178ZM48.448,0.504L48.448,-1.899L49.731,-1.899C50.614,-1.899 51.081,-1.377 51.081,-0.703C51.081,0.076 50.511,0.504 49.627,0.504L48.448,0.504ZM48.448,-2.508L48.448,-4.646L49.569,-4.646C50.463,-4.646 50.91,-4.189 50.91,-3.553C50.91,-3.011 50.474,-2.508 49.703,-2.508L48.448,-2.508ZM56.885,1.254L57.606,1.149L57.437,0.438L57.437,-3.458L56.543,-3.458L56.543,0.123C56.22,0.361 55.821,0.541 55.413,0.541C54.71,0.541 54.292,0.143 54.292,-0.569L54.292,-3.458L53.39,-3.458L53.39,-0.371C53.39,0.77 54.103,1.292 55.071,1.292C55.745,1.292 56.287,1.018 56.705,0.646L56.885,1.254ZM61.397,-2.896C61.722,-2.896 62.082,-2.784 62.338,-2.556L62.338,0.171C62.082,0.399 61.664,0.58 61.331,0.58C60.399,0.58 59.925,-0.095 59.925,-1.148C59.925,-2.232 60.515,-2.896 61.397,-2.896M61.132,-3.572C59.84,-3.572 58.976,-2.498 58.976,-1.063C58.976,0.305 59.792,1.292 60.961,1.292C61.569,1.292 62.158,1.018 62.509,0.655L62.681,1.254L63.401,1.149L63.241,0.438L63.241,-5.566L62.338,-5.566L62.338,-3.164C62.015,-3.42 61.588,-3.572 61.132,-3.572M67.05,-3.572C65.796,-3.572 64.808,-2.631 64.808,-1.148C64.808,0.427 65.92,1.292 67.079,1.292C67.687,1.292 68.313,1.121 68.808,0.809L68.618,0.276C68.228,0.476 67.753,0.608 67.345,0.608C66.472,0.608 65.806,0.047 65.739,-1.063L69.045,-1.063C69.112,-2.328 68.532,-3.572 67.05,-3.572M67.041,-2.916C67.829,-2.916 68.2,-2.261 68.209,-1.605L65.758,-1.566C65.862,-2.422 66.376,-2.916 67.041,-2.916M65.683,-5.558L66.651,-4.037L67.448,-4.037L68.418,-5.558L67.791,-5.558L67.05,-4.437L66.31,-5.558L65.683,-5.558ZM70.394,-3.458L70.394,1.312C70.394,1.691 70.327,1.977 70.138,2.242L69.586,3.002L70.08,3.354L70.735,2.584C71.06,2.186 71.287,1.824 71.287,1.227L71.287,-3.458L70.394,-3.458ZM70.364,-4.427L71.315,-4.427L71.315,-5.225L70.364,-5.225L70.364,-4.427ZM75.077,-2.916C75.903,-2.916 76.437,-2.355 76.437,-1.178C76.437,-0.057 75.951,0.608 75.077,0.608C74.271,0.608 73.709,0.067 73.709,-1.178C73.709,-2.252 74.194,-2.916 75.077,-2.916M75.106,-3.572C73.576,-3.572 72.797,-2.517 72.797,-1.045C72.797,0.409 73.747,1.292 74.981,1.292C76.513,1.292 77.329,0.237 77.329,-1.234C77.329,-2.687 76.341,-3.572 75.106,-3.572M78.241,-3.458L79.827,1.178L80.958,1.178L82.582,-3.458L81.688,-3.458L80.444,0.332L79.229,-3.458L78.241,-3.458ZM83.627,1.178L84.528,1.178L84.528,-3.458L83.627,-3.458L83.627,1.178ZM83.608,-4.427L84.548,-4.427L84.548,-5.225L83.608,-5.225L83.608,-4.427ZM88.358,-3.572C86.972,-3.572 86.021,-2.611 86.021,-1.111C86.021,0.295 87.038,1.292 88.196,1.292C88.813,1.292 89.317,1.121 89.755,0.864L89.603,0.323C89.28,0.494 88.862,0.618 88.501,0.618C87.627,0.618 86.962,-0.047 86.962,-1.168C86.962,-2.308 87.655,-2.896 88.501,-2.896C88.871,-2.896 89.261,-2.793 89.565,-2.603L89.774,-3.211C89.337,-3.458 88.881,-3.572 88.358,-3.572M91.692,-5.566L90.885,-4.047L91.502,-4.027L92.565,-5.566L91.692,-5.566ZM90.942,1.178L91.843,1.178L91.843,-3.458L90.942,-3.458L90.942,1.178ZM95.692,-3.572C94.306,-3.572 93.354,-2.611 93.354,-1.111C93.354,0.295 94.371,1.292 95.53,1.292C96.147,1.292 96.651,1.121 97.088,0.864L96.937,0.323C96.612,0.494 96.194,0.618 95.834,0.618C94.96,0.618 94.295,-0.047 94.295,-1.168C94.295,-2.308 94.989,-2.896 95.834,-2.896C96.205,-2.896 96.594,-2.793 96.897,-2.603L97.106,-3.211C96.67,-3.458 96.214,-3.572 95.692,-3.572M100.651,-3.572C100.052,-3.572 99.567,-3.325 99.179,-3.011L99.179,-5.566L98.276,-5.566L98.276,1.178L99.179,1.178L99.179,-2.441C99.558,-2.698 99.929,-2.82 100.31,-2.82C101.013,-2.82 101.431,-2.422 101.431,-1.71L101.431,1.178L102.323,1.178L102.323,-1.899C102.323,-3.05 101.62,-3.572 100.651,-3.572" style="fill:white;fill-rule:nonzero;"/>
            </g>
            <g transform="matrix(0.865244,0,0,0.865244,58.8545,36.2013)">
                <path d="M0,-8.55L0,-2.356C0,-1.862 -0.085,-1.549 -0.352,-1.196L-1.083,-0.247L-0.465,0.228L0.352,-0.703C0.741,-1.159 0.941,-1.529 0.941,-2.318L0.941,-8.55L0,-8.55ZM2.717,-2.033L3.619,-2.033L3.619,-6.669L2.717,-6.669L2.717,-2.033ZM2.698,-7.638L3.638,-7.638L3.638,-8.436L2.698,-8.436L2.698,-7.638ZM7.628,-6.783C7.03,-6.783 6.545,-6.536 6.156,-6.223L6.156,-8.778L5.253,-8.778L5.253,-2.033L6.156,-2.033L6.156,-5.653C6.536,-5.909 6.906,-6.031 7.286,-6.031C7.989,-6.031 8.407,-5.633 8.407,-4.921L8.407,-2.033L9.301,-2.033L9.301,-5.111C9.301,-6.261 8.598,-6.783 7.628,-6.783M13.081,-6.127C13.908,-6.127 14.439,-5.567 14.439,-4.389C14.439,-3.268 13.955,-2.603 13.081,-2.603C12.273,-2.603 11.713,-3.144 11.713,-4.389C11.713,-5.463 12.198,-6.127 13.081,-6.127M13.109,-6.783C11.58,-6.783 10.801,-5.728 10.801,-4.256C10.801,-2.803 11.751,-1.919 12.986,-1.919C14.516,-1.919 15.333,-2.974 15.333,-4.446C15.333,-5.9 14.346,-6.783 13.109,-6.783M19.123,-6.783C17.736,-6.783 16.786,-5.822 16.786,-4.322C16.786,-2.917 17.803,-1.919 18.962,-1.919C19.579,-1.919 20.083,-2.09 20.52,-2.347L20.368,-2.888C20.045,-2.717 19.627,-2.594 19.266,-2.594C18.393,-2.594 17.727,-3.259 17.727,-4.379C17.727,-5.519 18.42,-6.109 19.266,-6.109C19.637,-6.109 20.025,-6.004 20.33,-5.814L20.539,-6.422C20.102,-6.669 19.646,-6.783 19.123,-6.783M17.67,-8.769L18.639,-7.249L19.438,-7.249L20.406,-8.769L19.779,-8.769L19.038,-7.648L18.297,-8.769L17.67,-8.769ZM23.807,-6.783C22.553,-6.783 21.564,-5.843 21.564,-4.361C21.564,-2.784 22.676,-1.919 23.835,-1.919C24.443,-1.919 25.07,-2.09 25.564,-2.404L25.374,-2.935C24.985,-2.736 24.51,-2.603 24.102,-2.603C23.227,-2.603 22.563,-3.164 22.496,-4.275L25.803,-4.275C25.868,-5.539 25.289,-6.783 23.807,-6.783M23.797,-6.127C24.586,-6.127 24.956,-5.472 24.967,-4.817L22.516,-4.779C22.619,-5.633 23.133,-6.127 23.797,-6.127M28.898,-6.783C27.758,-6.783 27.055,-6.213 27.055,-5.368C27.055,-3.743 29.516,-4.389 29.516,-3.297C29.516,-2.821 29.079,-2.565 28.518,-2.565C28.092,-2.565 27.568,-2.67 27.18,-2.888L27.008,-2.279C27.407,-2.052 28.072,-1.919 28.594,-1.919C29.611,-1.919 30.391,-2.508 30.391,-3.411C30.391,-5.072 27.939,-4.456 27.939,-5.463C27.939,-5.918 28.328,-6.137 28.936,-6.137C29.335,-6.137 29.764,-6.042 30.049,-5.89L30.238,-6.479C29.867,-6.659 29.354,-6.783 28.898,-6.783M31.91,-8.778L31.91,-2.033L32.813,-2.033L32.813,-3.656L33.439,-4.284L34.902,-2.033L35.938,-2.033L34.085,-4.912L35.748,-6.669L34.75,-6.669L32.813,-4.598L32.813,-8.778L31.91,-8.778ZM38.854,-6.783C38.227,-6.783 37.648,-6.659 37.116,-6.394L37.314,-5.795C37.762,-6.042 38.266,-6.137 38.702,-6.137C39.348,-6.137 39.682,-5.805 39.682,-5.32L39.682,-4.874C38.219,-4.874 36.793,-4.636 36.793,-3.297C36.793,-2.375 37.516,-1.919 38.294,-1.919C38.949,-1.919 39.491,-2.195 39.852,-2.537L40.014,-1.957L40.745,-2.062L40.574,-2.774L40.574,-5.444C40.574,-6.289 39.823,-6.783 38.854,-6.783M39.682,-3.002C39.396,-2.726 39.006,-2.556 38.541,-2.556C38.085,-2.556 37.667,-2.821 37.667,-3.362C37.667,-4.199 38.655,-4.351 39.682,-4.351L39.682,-3.002ZM39.111,-8.778L38.303,-7.258L38.921,-7.238L39.985,-8.778L39.111,-8.778ZM48.602,-1.957L49.323,-2.062L49.152,-2.774L49.152,-6.669L48.26,-6.669L48.26,-3.088C47.936,-2.85 47.537,-2.67 47.129,-2.67C46.426,-2.67 46.008,-3.069 46.008,-3.78L46.008,-6.669L45.105,-6.669L45.105,-3.582C45.105,-2.442 45.818,-1.919 46.787,-1.919C47.461,-1.919 48.003,-2.195 48.421,-2.565L48.602,-1.957ZM53.219,-6.783C52.563,-6.783 52.04,-6.498 51.641,-6.137L51.527,-6.669L50.786,-6.669L50.844,-5.937L50.844,-2.033L51.736,-2.033L51.736,-5.653C52.126,-5.909 52.487,-6.031 52.876,-6.031C53.579,-6.031 53.988,-5.633 53.988,-4.921L53.988,-2.033L54.891,-2.033L54.891,-5.111C54.891,-6.261 54.178,-6.783 53.219,-6.783M56.523,-2.033L57.425,-2.033L57.425,-6.669L56.523,-6.669L56.523,-2.033ZM56.505,-7.638L57.446,-7.638L57.446,-8.436L56.505,-8.436L56.505,-7.638ZM58.473,-6.669L60.059,-2.033L61.189,-2.033L62.813,-6.669L61.92,-6.669L60.676,-2.879L59.46,-6.669L58.473,-6.669ZM65.957,-6.783C64.703,-6.783 63.715,-5.843 63.715,-4.361C63.715,-2.784 64.827,-1.919 65.986,-1.919C66.594,-1.919 67.221,-2.09 67.715,-2.404L67.525,-2.935C67.135,-2.736 66.66,-2.603 66.252,-2.603C65.378,-2.603 64.713,-3.164 64.646,-4.275L67.952,-4.275C68.02,-5.539 67.439,-6.783 65.957,-6.783M65.948,-6.127C66.736,-6.127 67.107,-5.472 67.116,-4.817L64.665,-4.779C64.77,-5.633 65.283,-6.127 65.948,-6.127M71.41,-6.754C70.878,-6.754 70.403,-6.488 70.09,-6.071L69.947,-6.669L69.206,-6.669L69.311,-5.871L69.311,-2.033L70.204,-2.033L70.204,-5.548C70.518,-5.852 70.965,-6.08 71.391,-6.08C71.543,-6.08 71.676,-6.042 71.809,-5.995L71.98,-6.603C71.838,-6.707 71.657,-6.754 71.41,-6.754M72.674,-6.669L72.674,-6.052L75.145,-6.052L72.561,-2.556L72.561,-2.033L76.369,-2.033L76.369,-2.641L73.689,-2.641L76.293,-6.175L76.293,-6.669L72.674,-6.669ZM77.671,-2.033L78.573,-2.033L78.573,-6.669L77.671,-6.669L77.671,-2.033ZM77.652,-7.638L78.591,-7.638L78.591,-8.436L77.652,-8.436L77.652,-7.638ZM80.872,-8.303L80.568,-6.669L79.704,-6.565L79.704,-6.052L80.568,-6.052L80.568,-3.221C80.568,-2.299 81.243,-1.919 81.946,-1.919C82.43,-1.919 82.857,-2.09 83.219,-2.29L83.049,-2.803C82.811,-2.679 82.544,-2.603 82.278,-2.603C81.832,-2.603 81.461,-2.803 81.461,-3.439L81.461,-6.052L83.029,-6.052L83.029,-6.669L81.461,-6.669L81.461,-8.303L80.872,-8.303ZM86.002,-6.783C85.375,-6.783 84.796,-6.659 84.264,-6.394L84.463,-5.795C84.91,-6.042 85.413,-6.137 85.85,-6.137C86.496,-6.137 86.828,-5.805 86.828,-5.32L86.828,-4.874C85.366,-4.874 83.939,-4.636 83.939,-3.297C83.939,-2.375 84.663,-1.919 85.441,-1.919C86.098,-1.919 86.639,-2.195 86.999,-2.537L87.161,-1.957L87.893,-2.062L87.721,-2.774L87.721,-5.444C87.721,-6.289 86.971,-6.783 86.002,-6.783M86.828,-3.002C86.544,-2.726 86.154,-2.556 85.689,-2.556C85.232,-2.556 84.814,-2.821 84.814,-3.362C84.814,-4.199 85.803,-4.351 86.828,-4.351L86.828,-3.002Z" style="fill:white;fill-rule:nonzero;"/>
            </g>
        </g>
    </g>
</svg>
