<?xml version="1.0" encoding="utf-8"?>
<!-- Generator: Adobe Illustrator 16.0.0, SVG Export Plug-In . SVG Version: 6.00 Build 0)  -->
<!DOCTYPE svg PUBLIC "-//W3C//DTD SVG 1.1//EN" "http://www.w3.org/Graphics/SVG/1.1/DTD/svg11.dtd">
<svg version="1.1" id="Layer_1" xmlns="http://www.w3.org/2000/svg" xmlns:xlink="http://www.w3.org/1999/xlink" x="0px" y="0px"
	 width="512px" height="512px" viewBox="0 0 512 512" enable-background="new 0 0 512 512" xml:space="preserve">
<path fill="#FFFFFF" d="M286.69,259.992h-60.747c-4.141,0-7.5,3.359-7.5,7.5s3.359,7.5,7.5,7.5h60.747c4.145,0,7.5-3.359,7.5-7.5
	S290.835,259.992,286.69,259.992z"/>
<path fill="#FFFFFF" d="M286.69,286.738h-60.747c-4.141,0-7.5,3.359-7.5,7.5c0,4.145,3.359,7.5,7.5,7.5h60.747
	c4.145,0,7.5-3.355,7.5-7.5C294.19,290.098,290.835,286.738,286.69,286.738z"/>
<path fill="#FFFFFF" d="M302.646,75.898h-46.328c-4.141,0-7.5,3.359-7.5,7.5c0,4.145,3.359,7.5,7.5,7.5h46.328
	c4.146,0,7.5-3.355,7.5-7.5C310.146,79.258,306.792,75.898,302.646,75.898z"/>
<path fill="#FFFFFF" d="M221.335,75.898h-11.344c-4.145,0-7.5,3.359-7.5,7.5c0,4.145,3.355,7.5,7.5,7.5h11.344
	c4.141,0,7.5-3.355,7.5-7.5C228.835,79.258,225.476,75.898,221.335,75.898z"/>
<path fill="#FFFFFF" d="M206.503,235.41c-10.074,0-18.266,8.195-18.266,18.27v54.375c0,10.074,8.191,18.266,18.266,18.266h99.633
	c10.07,0,18.267-8.19,18.267-18.266V253.68c0-10.074-8.191-18.27-18.267-18.27H206.503L206.503,235.41z M309.401,253.676v54.379
	c0,1.801-1.466,3.266-3.267,3.266h-99.633c-1.801,0-3.27-1.465-3.27-3.266v-54.379c0-1.801,1.465-3.266,3.27-3.266h99.633
	C307.938,250.41,309.401,251.875,309.401,253.676z"/>
<path fill="#FFFFFF" d="M482.753,282.211l-34.805-46.641c4.715-13.094,3.272-27.551-4.113-40.887
	c-1.332-2.402-3.875-3.898-6.613-3.863l-148.94,0.57v-18.762h35.539c6.512,0,12.729-1.258,18.438-3.535
	c0.062-0.023,0.121-0.051,0.185-0.074c18.288-7.391,31.227-25.332,31.227-46.238V50.844C373.663,23.359,351.304,1,323.819,1H188.815
	c-27.48,0-49.844,22.359-49.844,49.844v71.938c0,20.934,12.969,38.891,31.293,46.266c0.035,0.012,0.066,0.027,0.098,0.039
	c5.711,2.285,11.938,3.543,18.453,3.543h35.543v18.762l-148.941-0.57c-2.758,0-5.281,1.465-6.613,3.867
	c-7.387,13.336-8.828,27.793-4.113,40.883l-34.809,46.645c-5.039,6.766-7.145,15.09-5.922,23.438
	c0.621,4.25,2.062,8.246,4.227,11.812l7.297,74.23c0.734,7.457,4.328,14.188,10.121,18.944c4.91,4.031,10.902,6.238,17.156,6.371
	l17.883,9.078c3.32,1.685,6.859,2.48,10.348,2.48c0.262,0,0.523-0.004,0.789-0.013l6.148,13.953c2.051,4.66,6.68,7.562,11.617,7.562
	c0.895,0,1.801-0.094,2.703-0.293l16.359-3.594c4.047-0.888,6.605-4.888,5.715-8.935c-0.441-2.022-1.664-3.672-3.281-4.707
	s-3.629-1.453-5.652-1.008l-14.504,3.184L105.8,423.18c0.078-0.062,0.148-0.141,0.223-0.203c0.414-0.358,0.812-0.729,1.203-1.116
	c0.109-0.109,0.223-0.216,0.332-0.328c0.465-0.484,0.914-0.992,1.34-1.521c0.074-0.098,0.145-0.194,0.219-0.289
	c0.355-0.453,0.691-0.926,1.012-1.41c0.102-0.155,0.207-0.309,0.305-0.465c0.371-0.59,0.727-1.194,1.047-1.828
	c0.316-0.62,0.594-1.25,0.848-1.883c0.023-0.055,0.047-0.108,0.066-0.16c0.238-0.608,0.445-1.219,0.625-1.832
	c0.023-0.082,0.051-0.163,0.074-0.245c0.172-0.599,0.316-1.203,0.434-1.812c0.02-0.094,0.035-0.188,0.055-0.277
	c0.109-0.604,0.199-1.207,0.258-1.812c0.008-0.043,0.016-0.09,0.02-0.133l12.004-2.638l5.988,13.591
	c1.234,2.805,3.984,4.477,6.867,4.477c1.008,0,2.035-0.207,3.02-0.641c3.789-1.668,5.508-6.095,3.84-9.888l-6.754-15.327
	c-1.973-4.47-6.316-7.328-11.027-7.551c-1.086-0.052-2.195,0.038-3.293,0.28l-14.156,3.108c-0.043-0.069-0.094-0.133-0.141-0.202
	c-0.184-0.281-0.371-0.56-0.566-0.832c-0.078-0.109-0.156-0.22-0.238-0.328c-0.238-0.32-0.488-0.642-0.746-0.949
	c-0.031-0.034-0.059-0.073-0.086-0.108c-0.289-0.344-0.59-0.676-0.902-1.004c-0.086-0.095-0.176-0.181-0.266-0.273
	c-0.234-0.242-0.48-0.48-0.727-0.711c-0.102-0.094-0.199-0.188-0.301-0.277c-0.32-0.289-0.648-0.57-0.988-0.844
	c-0.02-0.016-0.035-0.031-0.055-0.047c-0.359-0.285-0.734-0.559-1.113-0.828c-0.105-0.074-0.219-0.148-0.328-0.223
	c-0.289-0.195-0.582-0.383-0.883-0.566c-0.117-0.07-0.234-0.145-0.352-0.215c-0.406-0.238-0.82-0.469-1.246-0.688l-10.699-5.431
	l-6.379-64.871l33.746-45.219l20.41,4.151l16.879,124.566c1.863,13.762,13.746,24.146,27.637,24.146h19.391v36.551
	c0,29.733,24.191,53.926,53.926,53.926c29.734,0,53.926-24.191,53.926-53.926v-36.551h19.391c13.892,0,25.771-10.384,27.638-24.146
	l3.227-23.809c0.555-4.103-2.32-7.883-6.426-8.438c-4.103-0.562-7.883,2.316-8.438,6.427l-3.227,23.805
	c-0.863,6.362-6.355,11.16-12.773,11.16H183.003c-6.418,0-11.91-4.798-12.773-11.16l-23.762-175.355
	c-0.504-3.738,0.582-7.367,3.066-10.207c2.484-2.844,5.934-4.41,9.707-4.41h194.151c3.777,0,7.228,1.566,9.707,4.41
	c2.484,2.84,3.574,6.469,3.066,10.211l-15.828,116.824c-0.559,4.105,2.32,7.883,6.422,8.441c4.103,0.551,7.883-2.32,8.441-6.426
	l8.945-66.035l20.409-4.156l33.75,45.223l-6.379,64.867l-10.703,5.434c-3.711,1.883-6.77,4.672-8.948,8.094l-14.142-3.104
	c-5.871-1.289-11.895,1.767-14.319,7.271l-6.754,15.327c-1.669,3.789,0.051,8.216,3.84,9.888c0.983,0.434,2.012,0.641,3.02,0.641
	c2.883,0,5.633-1.672,6.867-4.479l5.988-13.586l11.991,2.633c0.271,2.754,1.052,5.461,2.32,8.008
	c0.027,0.051,0.043,0.102,0.07,0.152c1.438,2.832,3.387,5.237,5.68,7.163l-5.086,11.544l-14.5-3.188
	c-4.059-0.887-8.047,1.672-8.938,5.719c-0.888,4.043,1.672,8.043,5.719,8.935l16.358,3.59c0.902,0.199,1.806,0.297,2.699,0.297
	c0.926,0,1.84-0.102,2.73-0.301c3.852-0.853,7.223-3.48,8.891-7.267l6.148-13.953c0.262,0.009,0.522,0.013,0.785,0.013
	c2.616,0,5.262-0.449,7.819-1.383c0.855-0.312,1.699-0.681,2.527-1.099l17.887-9.082c13.978-0.319,25.871-11.059,27.273-25.316
	l7.305-74.266C490.886,306.762,490.644,292.801,482.753,282.211z M73.511,397.238c-2.215,2.699-5.348,4.371-8.82,4.711
	c-0.188,0.02-0.375,0.035-0.562,0.043c-0.012,0-0.02,0-0.031,0.004c-3.266,0.172-6.43-0.859-8.973-2.949
	c-2.699-2.215-4.371-5.348-4.715-8.82l-5.836-59.383c3.379,1.211,6.945,1.836,10.57,1.836c1.539,0,3.086-0.113,4.637-0.34
	c3.863-0.562,7.523-1.812,10.836-3.66l5.559,56.516c0.004,0.07,0.012,0.142,0.02,0.207l0.223,2.271
	C76.757,391.145,75.726,394.543,73.511,397.238z M85.104,406.758c2.527-3.078,4.336-6.582,5.367-10.305l4.148,2.104
	c3.203,1.625,4.828,5.142,4.215,8.509c-0.215,0.551-0.418,1.069-0.594,1.512c-0.07,0.18-0.25,0.647-0.488,1.27
	c-2.004,3.207-6.02,4.547-9.543,3.211l-6.184-3.09h-0.008C83.12,408.988,84.151,407.918,85.104,406.758z M68.515,310.996
	c-2.648,3.555-6.52,5.863-10.902,6.504c-4.387,0.637-8.758-0.465-12.309-3.113c-1.391-1.035-2.59-2.254-3.57-3.621
	c-0.078-0.117-0.16-0.233-0.242-0.348c-1.398-2.051-2.32-4.406-2.691-6.934c-0.641-4.383,0.465-8.754,3.109-12.301l30.945-41.47
	c6,7.095,14.199,12.461,24.023,15.591c0.258,0.081,0.516,0.147,0.781,0.202l4.172,0.849L68.515,310.996z M116.565,254.047
	c-0.098-0.023-0.195-0.043-0.293-0.062l-15.211-3.094c-9.688-3.176-17.043-9.281-20.969-17.344c-0.043-0.102-0.09-0.199-0.141-0.297
	c-0.277-0.59-0.539-1.188-0.781-1.797c-3.18-7.996-2.859-16.953,0.844-25.602l54.582,0.371c-2.703,5.105-3.781,10.973-2.992,16.801
	l4.75,35.051L116.565,254.047z M217.394,422.52h77.852v36.556c0,21.461-17.461,38.926-38.926,38.926s-38.926-17.465-38.926-38.926
	V422.52L217.394,422.52z M165.589,54.898v93.836c-7.125-6.383-11.617-15.652-11.617-25.949V50.844
	c0-19.211,15.633-34.844,34.844-34.844H323.82c19.215,0,34.844,15.633,34.844,34.844v71.938c0,10.301-4.488,19.566-11.613,25.953
	V54.898c0-12.445-10.125-22.566-22.57-22.566H188.161C175.714,32.332,165.589,42.453,165.589,54.898z M188.815,157.629
	c-2.832,0-5.586-0.344-8.227-0.984V54.898c0-4.172,3.395-7.566,7.57-7.566h136.32c4.172,0,7.565,3.395,7.565,7.566v101.746
	c-2.637,0.641-5.395,0.984-8.227,0.984L188.815,157.629L188.815,157.629z M273.279,191.391h-33.922v-18.762h33.922V191.391z
	 M396.058,254.047l-19.772,4.027l4.746-35.051c0.793-5.828-0.285-11.699-2.992-16.801l54.586-0.371
	c3.703,8.648,4.023,17.605,0.844,25.602c-0.246,0.617-0.512,1.223-0.793,1.82c-0.043,0.082-0.082,0.168-0.121,0.25
	c-3.922,8.078-11.28,14.188-20.977,17.367l-15.191,3.09C396.276,254,396.167,254.023,396.058,254.047z M430.616,409.969h-0.004
	l-1.875,0.953l-3.535,1.793c0,0,0,0-0.004,0.004c-0.203,0.103-0.418,0.181-0.629,0.267l-0.146,0.073
	c-3.52,1.336-7.539-0.008-9.543-3.211c-0.004-0.008-0.008-0.02-0.008-0.026c-0.121-0.191-0.242-0.384-0.344-0.59
	c-0.013-0.021-0.021-0.044-0.027-0.062c0.031-0.02,0.062-0.043,0.094-0.066c-0.094-0.241-0.164-0.426-0.203-0.52
	c-0.176-0.449-0.383-0.98-0.602-1.543c-0.23-1.277-0.145-2.598,0.27-3.867c0.656-2.016,2.062-3.652,3.953-4.613l4.148-2.104
	c1.031,3.727,2.84,7.227,5.367,10.305C428.483,407.918,429.515,408.988,430.616,409.969z M462.229,390.227
	c-0.344,3.474-2.016,6.605-4.715,8.82c-2.694,2.215-6.086,3.242-9.565,2.906c-3.478-0.344-6.605-2.016-8.82-4.715
	c-2.215-2.695-3.246-6.094-2.906-9.566l0.23-2.328c0.004-0.02,0.004-0.039,0.004-0.059l5.565-56.602
	c3.312,1.848,6.97,3.094,10.837,3.659c1.551,0.228,3.098,0.337,4.633,0.337c3.629,0,7.194-0.625,10.574-1.837L462.229,390.227z
	 M467.335,314.387c-3.555,2.648-7.922,3.75-12.309,3.113c-4.384-0.641-8.259-2.949-10.906-6.508l-2.031-2.727
	c-0.012-0.013-0.022-0.027-0.035-0.043l-31.246-41.867l4.173-0.853c0.266-0.051,0.522-0.121,0.776-0.198
	c9.828-3.13,18.027-8.496,24.027-15.591l30.94,41.461C476.19,298.512,474.671,308.922,467.335,314.387z"/>
</svg>
